<mxfile host="app.diagrams.net" agent="Mozilla/5.0 (Windows NT 10.0; Win64; x64) AppleWebKit/537.36 (KHTML, like Gecko) Chrome/134.0.0.0 Safari/537.36" version="26.1.3">
  <diagram name="PÃ¡gina-1" id="LR8FmPeBAssXTByFobYy">
    <mxGraphModel grid="1" page="1" gridSize="10" guides="1" tooltips="1" connect="1" arrows="1" fold="1" pageScale="1" pageWidth="827" pageHeight="1169" math="0" shadow="0">
      <root>
        <mxCell id="0" />
        <mxCell id="1" parent="0" />
        <mxCell id="7DLt70M-RXOIJeMnWZNQ-8" style="edgeStyle=orthogonalEdgeStyle;rounded=0;orthogonalLoop=1;jettySize=auto;html=1;entryX=0.5;entryY=0;entryDx=0;entryDy=0;" edge="1" parent="1" source="7DLt70M-RXOIJeMnWZNQ-2" target="7DLt70M-RXOIJeMnWZNQ-7">
          <mxGeometry relative="1" as="geometry" />
        </mxCell>
        <mxCell id="7DLt70M-RXOIJeMnWZNQ-2" value="" style="ellipse;whiteSpace=wrap;html=1;aspect=fixed;fillColor=#000000;" vertex="1" parent="1">
          <mxGeometry x="400" y="40" width="20" height="20" as="geometry" />
        </mxCell>
        <mxCell id="7DLt70M-RXOIJeMnWZNQ-16" style="edgeStyle=orthogonalEdgeStyle;rounded=0;orthogonalLoop=1;jettySize=auto;html=1;exitX=0.5;exitY=1;exitDx=0;exitDy=0;" edge="1" parent="1" source="7DLt70M-RXOIJeMnWZNQ-3" target="7DLt70M-RXOIJeMnWZNQ-15">
          <mxGeometry relative="1" as="geometry" />
        </mxCell>
        <mxCell id="7DLt70M-RXOIJeMnWZNQ-3" value="Interface" style="rounded=1;whiteSpace=wrap;html=1;" vertex="1" parent="1">
          <mxGeometry x="210" y="190" width="100" height="30" as="geometry" />
        </mxCell>
        <mxCell id="7DLt70M-RXOIJeMnWZNQ-10" style="edgeStyle=orthogonalEdgeStyle;rounded=0;orthogonalLoop=1;jettySize=auto;html=1;exitX=0.25;exitY=1;exitDx=0;exitDy=0;entryX=0.5;entryY=0;entryDx=0;entryDy=0;" edge="1" parent="1" source="7DLt70M-RXOIJeMnWZNQ-6" target="7DLt70M-RXOIJeMnWZNQ-3">
          <mxGeometry relative="1" as="geometry" />
        </mxCell>
        <mxCell id="7DLt70M-RXOIJeMnWZNQ-13" style="edgeStyle=orthogonalEdgeStyle;rounded=0;orthogonalLoop=1;jettySize=auto;html=1;exitX=0.75;exitY=1;exitDx=0;exitDy=0;entryX=0.5;entryY=0;entryDx=0;entryDy=0;" edge="1" parent="1" source="7DLt70M-RXOIJeMnWZNQ-6" target="7DLt70M-RXOIJeMnWZNQ-12">
          <mxGeometry relative="1" as="geometry" />
        </mxCell>
        <mxCell id="7DLt70M-RXOIJeMnWZNQ-14" style="edgeStyle=orthogonalEdgeStyle;rounded=0;orthogonalLoop=1;jettySize=auto;html=1;exitX=0.5;exitY=1;exitDx=0;exitDy=0;entryX=0.5;entryY=0;entryDx=0;entryDy=0;" edge="1" parent="1" source="7DLt70M-RXOIJeMnWZNQ-6" target="7DLt70M-RXOIJeMnWZNQ-11">
          <mxGeometry relative="1" as="geometry" />
        </mxCell>
        <mxCell id="7DLt70M-RXOIJeMnWZNQ-6" value="" style="rounded=0;whiteSpace=wrap;html=1;fillColor=#000000;" vertex="1" parent="1">
          <mxGeometry x="362.5" y="140" width="95" height="10" as="geometry" />
        </mxCell>
        <mxCell id="7DLt70M-RXOIJeMnWZNQ-9" style="edgeStyle=orthogonalEdgeStyle;rounded=0;orthogonalLoop=1;jettySize=auto;html=1;exitX=0.5;exitY=1;exitDx=0;exitDy=0;entryX=0.5;entryY=0;entryDx=0;entryDy=0;" edge="1" parent="1" source="7DLt70M-RXOIJeMnWZNQ-7" target="7DLt70M-RXOIJeMnWZNQ-6">
          <mxGeometry relative="1" as="geometry" />
        </mxCell>
        <mxCell id="7DLt70M-RXOIJeMnWZNQ-7" value="&lt;div&gt;&lt;span style=&quot;background-color: transparent; color: light-dark(rgb(0, 0, 0), rgb(255, 255, 255));&quot;&gt;Central de Controle&lt;/span&gt;&lt;/div&gt;" style="rounded=1;whiteSpace=wrap;html=1;" vertex="1" parent="1">
          <mxGeometry x="352.5" y="90" width="115" height="30" as="geometry" />
        </mxCell>
        <mxCell id="7DLt70M-RXOIJeMnWZNQ-11" value="Controle" style="rounded=1;whiteSpace=wrap;html=1;" vertex="1" parent="1">
          <mxGeometry x="360" y="190" width="100" height="30" as="geometry" />
        </mxCell>
        <mxCell id="7DLt70M-RXOIJeMnWZNQ-18" style="edgeStyle=orthogonalEdgeStyle;rounded=0;orthogonalLoop=1;jettySize=auto;html=1;exitX=0.5;exitY=1;exitDx=0;exitDy=0;" edge="1" parent="1" source="7DLt70M-RXOIJeMnWZNQ-12" target="7DLt70M-RXOIJeMnWZNQ-17">
          <mxGeometry relative="1" as="geometry" />
        </mxCell>
        <mxCell id="7DLt70M-RXOIJeMnWZNQ-12" value="Dashboard" style="rounded=1;whiteSpace=wrap;html=1;" vertex="1" parent="1">
          <mxGeometry x="530" y="190" width="100" height="30" as="geometry" />
        </mxCell>
        <mxCell id="7DLt70M-RXOIJeMnWZNQ-15" value="Gerenciar frotas de Drones" style="rounded=1;whiteSpace=wrap;html=1;" vertex="1" parent="1">
          <mxGeometry x="200" y="250" width="120" height="60" as="geometry" />
        </mxCell>
        <mxCell id="7DLt70M-RXOIJeMnWZNQ-17" value="Acesso a Telemetria" style="rounded=1;whiteSpace=wrap;html=1;" vertex="1" parent="1">
          <mxGeometry x="520" y="250" width="120" height="60" as="geometry" />
        </mxCell>
      </root>
    </mxGraphModel>
  </diagram>
</mxfile>
